<mxfile host="app.diagrams.net" agent="Mozilla/5.0 (Windows NT 10.0; Win64; x64) AppleWebKit/537.36 (KHTML, like Gecko) Chrome/131.0.0.0 Safari/537.36 Edg/131.0.0.0" version="24.8.6">
  <diagram name="Page-1" id="iZ6YkgYSgAIPaj2VebMg">
    <mxGraphModel dx="1213" dy="544" grid="1" gridSize="10" guides="1" tooltips="1" connect="1" arrows="1" fold="1" page="1" pageScale="1" pageWidth="827" pageHeight="1169" math="0" shadow="0">
      <root>
        <mxCell id="0" />
        <mxCell id="1" parent="0" />
        <mxCell id="A7GoeLx9B2mRI4Yj65S--9" value="&lt;p style=&quot;margin: 4px 0px 0px; text-align: center;&quot;&gt;&lt;b style=&quot;&quot;&gt;1.0&lt;/b&gt;&lt;/p&gt;&lt;hr size=&quot;1&quot; style=&quot;border-style:solid;&quot;&gt;&lt;p style=&quot;margin:0px;margin-left:8px;&quot;&gt;Register:Form&lt;/p&gt;&lt;p style=&quot;margin:0px;margin-left:8px;&quot;&gt;(register.php)&lt;/p&gt;" style="verticalAlign=top;align=left;overflow=fill;html=1;whiteSpace=wrap;" parent="1" vertex="1">
          <mxGeometry x="360" y="40" width="160" height="90" as="geometry" />
        </mxCell>
        <mxCell id="A7GoeLx9B2mRI4Yj65S--11" value="&lt;p style=&quot;margin: 4px 0px 0px; text-align: center;&quot;&gt;&lt;b style=&quot;&quot;&gt;2.0&lt;/b&gt;&lt;/p&gt;&lt;hr size=&quot;1&quot; style=&quot;border-style:solid;&quot;&gt;&lt;p style=&quot;margin:0px;margin-left:8px;&quot;&gt;Login&lt;/p&gt;" style="verticalAlign=top;align=left;overflow=fill;html=1;whiteSpace=wrap;" parent="1" vertex="1">
          <mxGeometry x="360" y="200" width="160" height="70" as="geometry" />
        </mxCell>
        <mxCell id="A7GoeLx9B2mRI4Yj65S--12" value="&lt;p style=&quot;margin: 4px 0px 0px; text-align: center;&quot;&gt;&lt;b&gt;3.0&lt;/b&gt;&lt;/p&gt;&lt;hr size=&quot;1&quot; style=&quot;border-style:solid;&quot;&gt;&lt;p style=&quot;margin:0px;margin-left:8px;&quot;&gt;View Rooms&lt;/p&gt;" style="verticalAlign=top;align=left;overflow=fill;html=1;whiteSpace=wrap;" parent="1" vertex="1">
          <mxGeometry x="360" y="330" width="160" height="70" as="geometry" />
        </mxCell>
        <mxCell id="A7GoeLx9B2mRI4Yj65S--13" value="&lt;p style=&quot;margin: 4px 0px 0px; text-align: center;&quot;&gt;&lt;b style=&quot;&quot;&gt;4.0&lt;/b&gt;&lt;/p&gt;&lt;hr size=&quot;1&quot; style=&quot;border-style:solid;&quot;&gt;&lt;p style=&quot;margin:0px;margin-left:8px;&quot;&gt;Search Rooms&lt;/p&gt;" style="verticalAlign=top;align=left;overflow=fill;html=1;whiteSpace=wrap;" parent="1" vertex="1">
          <mxGeometry x="360" y="450" width="160" height="70" as="geometry" />
        </mxCell>
        <mxCell id="A7GoeLx9B2mRI4Yj65S--14" value="&lt;p style=&quot;margin: 4px 0px 0px; text-align: center;&quot;&gt;&lt;b style=&quot;&quot;&gt;5.0&lt;/b&gt;&lt;/p&gt;&lt;hr size=&quot;1&quot; style=&quot;border-style:solid;&quot;&gt;&lt;p style=&quot;margin:0px;margin-left:8px;&quot;&gt;Book Rooms&lt;/p&gt;" style="verticalAlign=top;align=left;overflow=fill;html=1;whiteSpace=wrap;" parent="1" vertex="1">
          <mxGeometry x="360" y="570" width="160" height="100" as="geometry" />
        </mxCell>
        <mxCell id="A7GoeLx9B2mRI4Yj65S--15" value="User" style="html=1;whiteSpace=wrap;" parent="1" vertex="1">
          <mxGeometry x="150" y="130" width="90" height="50" as="geometry" />
        </mxCell>
        <mxCell id="A7GoeLx9B2mRI4Yj65S--17" value="User Info" style="html=1;whiteSpace=wrap;" parent="1" vertex="1">
          <mxGeometry x="630" y="60" width="90" height="50" as="geometry" />
        </mxCell>
        <mxCell id="A7GoeLx9B2mRI4Yj65S--18" value="Admin" style="html=1;whiteSpace=wrap;" parent="1" vertex="1">
          <mxGeometry x="680" y="570" width="110" height="100" as="geometry" />
        </mxCell>
        <mxCell id="A7GoeLx9B2mRI4Yj65S--30" value="User Data" style="text;html=1;align=center;verticalAlign=middle;whiteSpace=wrap;rounded=0;" parent="1" vertex="1">
          <mxGeometry x="240" y="40" width="60" height="30" as="geometry" />
        </mxCell>
        <mxCell id="A7GoeLx9B2mRI4Yj65S--33" value="User Ceredentials" style="text;html=1;align=center;verticalAlign=middle;whiteSpace=wrap;rounded=0;" parent="1" vertex="1">
          <mxGeometry x="250" y="210" width="60" height="30" as="geometry" />
        </mxCell>
        <mxCell id="A7GoeLx9B2mRI4Yj65S--36" value="Valdation" style="text;html=1;align=center;verticalAlign=middle;whiteSpace=wrap;rounded=0;" parent="1" vertex="1">
          <mxGeometry x="550" y="200" width="60" height="30" as="geometry" />
        </mxCell>
        <mxCell id="A7GoeLx9B2mRI4Yj65S--37" value="Show Details" style="text;html=1;align=center;verticalAlign=middle;whiteSpace=wrap;rounded=0;" parent="1" vertex="1">
          <mxGeometry x="570" y="540" width="60" height="30" as="geometry" />
        </mxCell>
        <mxCell id="A7GoeLx9B2mRI4Yj65S--38" value="" style="endArrow=classic;html=1;rounded=0;entryX=0.007;entryY=0.081;entryDx=0;entryDy=0;entryPerimeter=0;" parent="1" edge="1" target="A7GoeLx9B2mRI4Yj65S--18">
          <mxGeometry width="50" height="50" relative="1" as="geometry">
            <mxPoint x="520" y="577" as="sourcePoint" />
            <mxPoint x="520" y="585" as="targetPoint" />
          </mxGeometry>
        </mxCell>
        <mxCell id="A7GoeLx9B2mRI4Yj65S--40" value="Manages Bookings" style="text;html=1;align=center;verticalAlign=middle;whiteSpace=wrap;rounded=0;" parent="1" vertex="1">
          <mxGeometry x="560" y="600" width="60" height="30" as="geometry" />
        </mxCell>
        <mxCell id="A7GoeLx9B2mRI4Yj65S--41" value="Manages Users" style="text;html=1;align=center;verticalAlign=middle;whiteSpace=wrap;rounded=0;" parent="1" vertex="1">
          <mxGeometry x="560" y="660" width="60" height="30" as="geometry" />
        </mxCell>
        <mxCell id="A7GoeLx9B2mRI4Yj65S--44" value="" style="endArrow=classic;html=1;rounded=0;entryX=0;entryY=0.25;entryDx=0;entryDy=0;exitX=0.568;exitY=0.001;exitDx=0;exitDy=0;exitPerimeter=0;" parent="1" source="A7GoeLx9B2mRI4Yj65S--15" target="A7GoeLx9B2mRI4Yj65S--9" edge="1">
          <mxGeometry width="50" height="50" relative="1" as="geometry">
            <mxPoint x="202" y="133" as="sourcePoint" />
            <mxPoint x="310" y="110" as="targetPoint" />
            <Array as="points">
              <mxPoint x="200" y="63" />
            </Array>
          </mxGeometry>
        </mxCell>
        <mxCell id="A7GoeLx9B2mRI4Yj65S--45" value="" style="endArrow=classic;html=1;rounded=0;entryX=1;entryY=0.5;entryDx=0;entryDy=0;exitX=0.5;exitY=1;exitDx=0;exitDy=0;" parent="1" source="A7GoeLx9B2mRI4Yj65S--17" target="A7GoeLx9B2mRI4Yj65S--11" edge="1">
          <mxGeometry width="50" height="50" relative="1" as="geometry">
            <mxPoint x="210" y="150" as="sourcePoint" />
            <mxPoint x="370" y="73" as="targetPoint" />
            <Array as="points">
              <mxPoint x="675" y="235" />
            </Array>
          </mxGeometry>
        </mxCell>
        <mxCell id="A7GoeLx9B2mRI4Yj65S--46" value="" style="endArrow=classic;html=1;rounded=0;exitX=1;exitY=0.5;exitDx=0;exitDy=0;entryX=0;entryY=0.5;entryDx=0;entryDy=0;" parent="1" source="A7GoeLx9B2mRI4Yj65S--9" target="A7GoeLx9B2mRI4Yj65S--17" edge="1">
          <mxGeometry width="50" height="50" relative="1" as="geometry">
            <mxPoint x="530" y="150" as="sourcePoint" />
            <mxPoint x="580" y="100" as="targetPoint" />
          </mxGeometry>
        </mxCell>
        <mxCell id="A7GoeLx9B2mRI4Yj65S--47" value="" style="endArrow=classic;html=1;rounded=0;exitX=0.5;exitY=1;exitDx=0;exitDy=0;entryX=0;entryY=0.75;entryDx=0;entryDy=0;" parent="1" source="A7GoeLx9B2mRI4Yj65S--15" target="A7GoeLx9B2mRI4Yj65S--11" edge="1">
          <mxGeometry width="50" height="50" relative="1" as="geometry">
            <mxPoint x="530" y="95" as="sourcePoint" />
            <mxPoint x="640" y="95" as="targetPoint" />
            <Array as="points">
              <mxPoint x="195" y="253" />
            </Array>
          </mxGeometry>
        </mxCell>
        <mxCell id="A7GoeLx9B2mRI4Yj65S--48" value="" style="endArrow=classic;html=1;rounded=0;exitX=0.469;exitY=1;exitDx=0;exitDy=0;exitPerimeter=0;" parent="1" source="A7GoeLx9B2mRI4Yj65S--9" edge="1">
          <mxGeometry width="50" height="50" relative="1" as="geometry">
            <mxPoint x="420" y="240" as="sourcePoint" />
            <mxPoint x="435" y="200" as="targetPoint" />
          </mxGeometry>
        </mxCell>
        <mxCell id="A7GoeLx9B2mRI4Yj65S--49" value="" style="endArrow=classic;html=1;rounded=0;" parent="1" target="A7GoeLx9B2mRI4Yj65S--12" edge="1">
          <mxGeometry width="50" height="50" relative="1" as="geometry">
            <mxPoint x="440" y="270" as="sourcePoint" />
            <mxPoint x="445" y="210" as="targetPoint" />
          </mxGeometry>
        </mxCell>
        <mxCell id="A7GoeLx9B2mRI4Yj65S--50" value="" style="endArrow=classic;html=1;rounded=0;" parent="1" edge="1">
          <mxGeometry width="50" height="50" relative="1" as="geometry">
            <mxPoint x="440" y="400" as="sourcePoint" />
            <mxPoint x="440" y="450" as="targetPoint" />
          </mxGeometry>
        </mxCell>
        <mxCell id="A7GoeLx9B2mRI4Yj65S--51" value="" style="endArrow=classic;html=1;rounded=0;entryX=0.5;entryY=0;entryDx=0;entryDy=0;exitX=0.5;exitY=1;exitDx=0;exitDy=0;" parent="1" source="A7GoeLx9B2mRI4Yj65S--13" target="A7GoeLx9B2mRI4Yj65S--14" edge="1">
          <mxGeometry width="50" height="50" relative="1" as="geometry">
            <mxPoint x="450" y="410" as="sourcePoint" />
            <mxPoint x="450" y="460" as="targetPoint" />
          </mxGeometry>
        </mxCell>
        <mxCell id="Vt-sAhEcG2sZiWPxKKbj-2" value="User Data" style="text;html=1;align=center;verticalAlign=middle;whiteSpace=wrap;rounded=0;" vertex="1" parent="1">
          <mxGeometry x="560" y="60" width="60" height="30" as="geometry" />
        </mxCell>
        <mxCell id="Vt-sAhEcG2sZiWPxKKbj-3" value="Rooms" style="html=1;whiteSpace=wrap;" vertex="1" parent="1">
          <mxGeometry x="650" y="340" width="90" height="50" as="geometry" />
        </mxCell>
        <mxCell id="Vt-sAhEcG2sZiWPxKKbj-4" value="&lt;p style=&quot;margin: 4px 0px 0px; text-align: center;&quot;&gt;&lt;b style=&quot;&quot;&gt;5.0&lt;/b&gt;&lt;/p&gt;&lt;hr size=&quot;1&quot; style=&quot;border-style:solid;&quot;&gt;&lt;p style=&quot;margin:0px;margin-left:8px;&quot;&gt;Add Rooms&lt;/p&gt;" style="verticalAlign=top;align=left;overflow=fill;html=1;whiteSpace=wrap;" vertex="1" parent="1">
          <mxGeometry x="650" y="440" width="160" height="70" as="geometry" />
        </mxCell>
        <mxCell id="Vt-sAhEcG2sZiWPxKKbj-5" value="" style="endArrow=classic;html=1;rounded=0;exitX=0.364;exitY=0;exitDx=0;exitDy=0;exitPerimeter=0;" edge="1" parent="1" source="A7GoeLx9B2mRI4Yj65S--18">
          <mxGeometry width="50" height="50" relative="1" as="geometry">
            <mxPoint x="720" y="568.7300000000001" as="sourcePoint" />
            <mxPoint x="720" y="510" as="targetPoint" />
          </mxGeometry>
        </mxCell>
        <mxCell id="Vt-sAhEcG2sZiWPxKKbj-6" value="" style="endArrow=classic;html=1;rounded=0;" edge="1" parent="1">
          <mxGeometry width="50" height="50" relative="1" as="geometry">
            <mxPoint x="700" y="440" as="sourcePoint" />
            <mxPoint x="699" y="390" as="targetPoint" />
          </mxGeometry>
        </mxCell>
        <mxCell id="Vt-sAhEcG2sZiWPxKKbj-7" value="" style="endArrow=classic;html=1;rounded=0;entryX=1;entryY=0.5;entryDx=0;entryDy=0;" edge="1" parent="1" source="Vt-sAhEcG2sZiWPxKKbj-3" target="A7GoeLx9B2mRI4Yj65S--12">
          <mxGeometry width="50" height="50" relative="1" as="geometry">
            <mxPoint x="450" y="410" as="sourcePoint" />
            <mxPoint x="450" y="460" as="targetPoint" />
          </mxGeometry>
        </mxCell>
        <mxCell id="Vt-sAhEcG2sZiWPxKKbj-8" value="" style="endArrow=classic;html=1;rounded=0;exitX=0.002;exitY=0.266;exitDx=0;exitDy=0;entryX=0.999;entryY=0.265;entryDx=0;entryDy=0;entryPerimeter=0;exitPerimeter=0;" edge="1" parent="1" source="A7GoeLx9B2mRI4Yj65S--18" target="A7GoeLx9B2mRI4Yj65S--14">
          <mxGeometry width="50" height="50" relative="1" as="geometry">
            <mxPoint x="690" y="594" as="sourcePoint" />
            <mxPoint x="528" y="592" as="targetPoint" />
          </mxGeometry>
        </mxCell>
        <mxCell id="Vt-sAhEcG2sZiWPxKKbj-9" value="" style="endArrow=classic;html=1;rounded=0;exitX=-0.001;exitY=0.895;exitDx=0;exitDy=0;exitPerimeter=0;" edge="1" parent="1" source="A7GoeLx9B2mRI4Yj65S--18">
          <mxGeometry width="50" height="50" relative="1" as="geometry">
            <mxPoint x="700" y="604" as="sourcePoint" />
            <mxPoint x="520" y="659" as="targetPoint" />
          </mxGeometry>
        </mxCell>
        <mxCell id="Vt-sAhEcG2sZiWPxKKbj-10" value="New Rooms" style="text;html=1;align=center;verticalAlign=middle;whiteSpace=wrap;rounded=0;" vertex="1" parent="1">
          <mxGeometry x="730" y="530" width="80" height="30" as="geometry" />
        </mxCell>
        <mxCell id="Vt-sAhEcG2sZiWPxKKbj-11" value="Room Details&amp;nbsp;" style="text;html=1;align=center;verticalAlign=middle;whiteSpace=wrap;rounded=0;" vertex="1" parent="1">
          <mxGeometry x="545" y="360" width="90" height="30" as="geometry" />
        </mxCell>
      </root>
    </mxGraphModel>
  </diagram>
</mxfile>
